<mxfile host="65bd71144e">
    <diagram id="Aq5SklJpldZwCfAiTJRI" name="Page-1">
        <mxGraphModel dx="1579" dy="711" grid="1" gridSize="10" guides="1" tooltips="1" connect="1" arrows="1" fold="1" page="1" pageScale="1" pageWidth="850" pageHeight="1100" math="0" shadow="0">
            <root>
                <mxCell id="0"/>
                <mxCell id="1" parent="0"/>
                <mxCell id="2" value="Visiteur" style="shape=umlActor;verticalLabelPosition=bottom;verticalAlign=top;html=1;" parent="1" vertex="1">
                    <mxGeometry x="50" y="192" width="30" height="58" as="geometry"/>
                </mxCell>
                <mxCell id="3" value="Parcourir les liste des événements" style="ellipse;whiteSpace=wrap;html=1;" parent="1" vertex="1">
                    <mxGeometry x="320" y="192" width="140" height="50" as="geometry"/>
                </mxCell>
                <mxCell id="4" value="Consulter les détails des évenements" style="ellipse;whiteSpace=wrap;html=1;" parent="1" vertex="1">
                    <mxGeometry x="320" y="270" width="140" height="50" as="geometry"/>
                </mxCell>
                <mxCell id="5" value="Gérer les tickets" style="ellipse;whiteSpace=wrap;html=1;" parent="1" vertex="1">
                    <mxGeometry x="365" y="910" width="140" height="50" as="geometry"/>
                </mxCell>
                <mxCell id="6" value="Filtrer les événements" style="ellipse;whiteSpace=wrap;html=1;" parent="1" vertex="1">
                    <mxGeometry x="330" y="350" width="140" height="50" as="geometry"/>
                </mxCell>
                <mxCell id="7" value="Se connecter" style="ellipse;whiteSpace=wrap;html=1;" parent="1" vertex="1">
                    <mxGeometry x="690" y="622" width="140" height="50" as="geometry"/>
                </mxCell>
                <mxCell id="8" value="Utilisateur" style="shape=umlActor;verticalLabelPosition=bottom;verticalAlign=top;html=1;" parent="1" vertex="1">
                    <mxGeometry x="41" y="505" width="30" height="60" as="geometry"/>
                </mxCell>
                <mxCell id="9" value="Rechercher les événements" style="ellipse;whiteSpace=wrap;html=1;" parent="1" vertex="1">
                    <mxGeometry x="330" y="440" width="140" height="40" as="geometry"/>
                </mxCell>
                <mxCell id="10" value="Reserver une place pour l'événement" style="ellipse;whiteSpace=wrap;html=1;" parent="1" vertex="1">
                    <mxGeometry x="320" y="575" width="160" height="60" as="geometry"/>
                </mxCell>
                <mxCell id="15" value="Organisateur" style="shape=umlActor;verticalLabelPosition=bottom;verticalAlign=top;html=1;" parent="1" vertex="1">
                    <mxGeometry x="50" y="922" width="30" height="60" as="geometry"/>
                </mxCell>
                <mxCell id="16" value="Crééer un nouvel événement avec les tickets" style="ellipse;whiteSpace=wrap;html=1;" parent="1" vertex="1">
                    <mxGeometry x="350" y="719" width="140" height="70" as="geometry"/>
                </mxCell>
                <mxCell id="17" value="Accès à des statistiques" style="ellipse;whiteSpace=wrap;html=1;" parent="1" vertex="1">
                    <mxGeometry x="355" y="820" width="140" height="70" as="geometry"/>
                </mxCell>
                <mxCell id="18" value="" style="endArrow=none;html=1;exitX=0.5;exitY=0.5;exitDx=0;exitDy=0;exitPerimeter=0;entryX=0.01;entryY=0.388;entryDx=0;entryDy=0;entryPerimeter=0;" parent="1" source="15" target="16" edge="1">
                    <mxGeometry width="50" height="50" relative="1" as="geometry">
                        <mxPoint x="110" y="982" as="sourcePoint"/>
                        <mxPoint x="160" y="932" as="targetPoint"/>
                    </mxGeometry>
                </mxCell>
                <mxCell id="19" value="" style="endArrow=none;html=1;exitX=0.5;exitY=0.5;exitDx=0;exitDy=0;exitPerimeter=0;" parent="1" source="15" target="17" edge="1">
                    <mxGeometry width="50" height="50" relative="1" as="geometry">
                        <mxPoint x="75" y="1162" as="sourcePoint"/>
                        <mxPoint x="376.4000000000001" y="1069.16" as="targetPoint"/>
                    </mxGeometry>
                </mxCell>
                <mxCell id="23" value="" style="endArrow=none;html=1;entryX=0;entryY=0.5;entryDx=0;entryDy=0;exitX=0.5;exitY=0.5;exitDx=0;exitDy=0;exitPerimeter=0;" parent="1" source="2" target="9" edge="1">
                    <mxGeometry width="50" height="50" relative="1" as="geometry">
                        <mxPoint x="110" y="632" as="sourcePoint"/>
                        <mxPoint x="160" y="582" as="targetPoint"/>
                    </mxGeometry>
                </mxCell>
                <mxCell id="24" value="" style="endArrow=none;html=1;entryX=0;entryY=0.5;entryDx=0;entryDy=0;" parent="1" target="10" edge="1">
                    <mxGeometry width="50" height="50" relative="1" as="geometry">
                        <mxPoint x="70" y="530" as="sourcePoint"/>
                        <mxPoint x="360" y="472" as="targetPoint"/>
                    </mxGeometry>
                </mxCell>
                <mxCell id="26" value="" style="endArrow=none;html=1;entryX=0;entryY=0.5;entryDx=0;entryDy=0;exitX=0.5;exitY=0.5;exitDx=0;exitDy=0;exitPerimeter=0;" parent="1" source="2" target="3" edge="1">
                    <mxGeometry width="50" height="50" relative="1" as="geometry">
                        <mxPoint x="110" y="282" as="sourcePoint"/>
                        <mxPoint x="160" y="232" as="targetPoint"/>
                    </mxGeometry>
                </mxCell>
                <mxCell id="27" value="" style="endArrow=none;html=1;exitX=0.5;exitY=0.5;exitDx=0;exitDy=0;exitPerimeter=0;entryX=0;entryY=0.5;entryDx=0;entryDy=0;" parent="1" source="2" target="4" edge="1">
                    <mxGeometry width="50" height="50" relative="1" as="geometry">
                        <mxPoint x="75" y="232" as="sourcePoint"/>
                        <mxPoint x="360" y="116.99999999999989" as="targetPoint"/>
                    </mxGeometry>
                </mxCell>
                <mxCell id="28" value="" style="endArrow=none;html=1;entryX=0;entryY=0.5;entryDx=0;entryDy=0;" parent="1" target="5" edge="1">
                    <mxGeometry width="50" height="50" relative="1" as="geometry">
                        <mxPoint x="70" y="960" as="sourcePoint"/>
                        <mxPoint x="365.6443755328596" y="186.8350788222208" as="targetPoint"/>
                    </mxGeometry>
                </mxCell>
                <mxCell id="29" value="" style="endArrow=none;html=1;entryX=0;entryY=0.5;entryDx=0;entryDy=0;exitX=0.5;exitY=0.5;exitDx=0;exitDy=0;exitPerimeter=0;" parent="1" source="2" target="6" edge="1">
                    <mxGeometry width="50" height="50" relative="1" as="geometry">
                        <mxPoint x="70" y="532" as="sourcePoint"/>
                        <mxPoint x="371.8398477787214" y="303.0879370101925" as="targetPoint"/>
                    </mxGeometry>
                </mxCell>
                <mxCell id="30" value="" style="endArrow=block;dashed=1;endFill=0;endSize=12;html=1;exitX=1;exitY=0.5;exitDx=0;exitDy=0;" parent="1" source="5" edge="1">
                    <mxGeometry width="160" relative="1" as="geometry">
                        <mxPoint x="500" y="181.9999999999999" as="sourcePoint"/>
                        <mxPoint x="710.0000000000005" y="670" as="targetPoint"/>
                        <Array as="points">
                            <mxPoint x="690" y="690"/>
                        </Array>
                    </mxGeometry>
                </mxCell>
                <mxCell id="33" value="" style="endArrow=block;dashed=1;endFill=0;endSize=12;html=1;exitX=1;exitY=0.5;exitDx=0;exitDy=0;" parent="1" source="10" edge="1">
                    <mxGeometry width="160" relative="1" as="geometry">
                        <mxPoint x="505" y="507.6" as="sourcePoint"/>
                        <mxPoint x="725.3300325817104" y="622.0021323020419" as="targetPoint"/>
                        <Array as="points">
                            <mxPoint x="630" y="600"/>
                        </Array>
                    </mxGeometry>
                </mxCell>
                <mxCell id="38" value="" style="endArrow=block;dashed=1;endFill=0;endSize=12;html=1;exitX=1;exitY=0.5;exitDx=0;exitDy=0;entryX=0.059;entryY=0.781;entryDx=0;entryDy=0;entryPerimeter=0;" parent="1" source="16" target="7" edge="1">
                    <mxGeometry width="160" relative="1" as="geometry">
                        <mxPoint x="505" y="937" as="sourcePoint"/>
                        <mxPoint x="750.0000000000005" y="682" as="targetPoint"/>
                    </mxGeometry>
                </mxCell>
                <mxCell id="39" value="" style="endArrow=block;dashed=1;endFill=0;endSize=12;html=1;exitX=0.992;exitY=0.353;exitDx=0;exitDy=0;exitPerimeter=0;entryX=0.115;entryY=0.85;entryDx=0;entryDy=0;entryPerimeter=0;" parent="1" source="17" target="7" edge="1">
                    <mxGeometry width="160" relative="1" as="geometry">
                        <mxPoint x="515" y="1077" as="sourcePoint"/>
                        <mxPoint x="779.96" y="672" as="targetPoint"/>
                    </mxGeometry>
                </mxCell>
                <mxCell id="41" value="" style="endArrow=classic;html=1;" parent="1" edge="1">
                    <mxGeometry width="50" height="50" relative="1" as="geometry">
                        <mxPoint x="65" y="900" as="sourcePoint"/>
                        <mxPoint x="65" y="610" as="targetPoint"/>
                    </mxGeometry>
                </mxCell>
                <mxCell id="42" value="Evento" style="shape=umlFrame;whiteSpace=wrap;html=1;width=100;height=30;fontStyle=1" parent="1" vertex="1">
                    <mxGeometry x="110" y="40" width="720" height="1380" as="geometry"/>
                </mxCell>
                <mxCell id="43" value="Admin" style="shape=umlActor;verticalLabelPosition=bottom;verticalAlign=top;html=1;" parent="1" vertex="1">
                    <mxGeometry x="60" y="1192" width="30" height="60" as="geometry"/>
                </mxCell>
                <mxCell id="48" value="Valider les évenemnts créés" style="ellipse;whiteSpace=wrap;html=1;" parent="1" vertex="1">
                    <mxGeometry x="365" y="1260" width="140" height="50" as="geometry"/>
                </mxCell>
                <mxCell id="49" value="Modifier le role pour les utilisateurs" style="ellipse;whiteSpace=wrap;html=1;" parent="1" vertex="1">
                    <mxGeometry x="355" y="1090" width="140" height="70" as="geometry"/>
                </mxCell>
                <mxCell id="50" value="Gérer les catégories des évenements" style="ellipse;whiteSpace=wrap;html=1;" parent="1" vertex="1">
                    <mxGeometry x="360" y="1180" width="140" height="70" as="geometry"/>
                </mxCell>
                <mxCell id="51" value="Accès à des statistiques" style="ellipse;whiteSpace=wrap;html=1;" parent="1" vertex="1">
                    <mxGeometry x="365" y="1332" width="140" height="70" as="geometry"/>
                </mxCell>
                <mxCell id="52" value="" style="endArrow=none;html=1;entryX=0;entryY=0.5;entryDx=0;entryDy=0;" parent="1" target="49" edge="1">
                    <mxGeometry width="50" height="50" relative="1" as="geometry">
                        <mxPoint x="90" y="1220" as="sourcePoint"/>
                        <mxPoint x="376.4000000000001" y="1052.0000000000002" as="targetPoint"/>
                    </mxGeometry>
                </mxCell>
                <mxCell id="53" value="" style="endArrow=none;html=1;entryX=0;entryY=0.5;entryDx=0;entryDy=0;" parent="1" target="50" edge="1">
                    <mxGeometry width="50" height="50" relative="1" as="geometry">
                        <mxPoint x="90" y="1220" as="sourcePoint"/>
                        <mxPoint x="370" y="1155" as="targetPoint"/>
                    </mxGeometry>
                </mxCell>
                <mxCell id="54" value="" style="endArrow=none;html=1;entryX=0;entryY=0.5;entryDx=0;entryDy=0;" parent="1" target="48" edge="1">
                    <mxGeometry width="50" height="50" relative="1" as="geometry">
                        <mxPoint x="90" y="1220" as="sourcePoint"/>
                        <mxPoint x="370" y="1225" as="targetPoint"/>
                    </mxGeometry>
                </mxCell>
                <mxCell id="55" value="" style="endArrow=none;html=1;entryX=0;entryY=0.5;entryDx=0;entryDy=0;" parent="1" target="51" edge="1">
                    <mxGeometry width="50" height="50" relative="1" as="geometry">
                        <mxPoint x="90" y="1220" as="sourcePoint"/>
                        <mxPoint x="360" y="1360" as="targetPoint"/>
                    </mxGeometry>
                </mxCell>
                <mxCell id="56" value="" style="endArrow=block;dashed=1;endFill=0;endSize=12;html=1;exitX=1;exitY=0.5;exitDx=0;exitDy=0;" parent="1" edge="1">
                    <mxGeometry width="160" relative="1" as="geometry">
                        <mxPoint x="495" y="1141.5" as="sourcePoint"/>
                        <mxPoint x="735" y="672" as="targetPoint"/>
                        <Array as="points">
                            <mxPoint x="635" y="882"/>
                        </Array>
                    </mxGeometry>
                </mxCell>
                <mxCell id="57" value="" style="endArrow=block;dashed=1;endFill=0;endSize=12;html=1;exitX=1;exitY=0.5;exitDx=0;exitDy=0;entryX=0.5;entryY=1;entryDx=0;entryDy=0;" parent="1" target="7" edge="1">
                    <mxGeometry width="160" relative="1" as="geometry">
                        <mxPoint x="495" y="1229.5" as="sourcePoint"/>
                        <mxPoint x="735" y="760" as="targetPoint"/>
                        <Array as="points">
                            <mxPoint x="650" y="985"/>
                            <mxPoint x="720" y="830"/>
                        </Array>
                    </mxGeometry>
                </mxCell>
                <mxCell id="58" value="" style="endArrow=block;dashed=1;endFill=0;endSize=12;html=1;exitX=1;exitY=0.5;exitDx=0;exitDy=0;entryX=0.643;entryY=0.96;entryDx=0;entryDy=0;entryPerimeter=0;" parent="1" target="7" edge="1">
                    <mxGeometry width="160" relative="1" as="geometry">
                        <mxPoint x="505" y="1287.5" as="sourcePoint"/>
                        <mxPoint x="770" y="730" as="targetPoint"/>
                        <Array as="points">
                            <mxPoint x="660" y="1043"/>
                            <mxPoint x="730" y="888"/>
                        </Array>
                    </mxGeometry>
                </mxCell>
                <mxCell id="59" value="" style="endArrow=block;dashed=1;endFill=0;endSize=12;html=1;exitX=1;exitY=0.5;exitDx=0;exitDy=0;entryX=0.744;entryY=1.025;entryDx=0;entryDy=0;entryPerimeter=0;" parent="1" target="7" edge="1">
                    <mxGeometry width="160" relative="1" as="geometry">
                        <mxPoint x="505" y="1367.5" as="sourcePoint"/>
                        <mxPoint x="770" y="810" as="targetPoint"/>
                        <Array as="points">
                            <mxPoint x="660" y="1123"/>
                            <mxPoint x="730" y="968"/>
                            <mxPoint x="780" y="820"/>
                        </Array>
                    </mxGeometry>
                </mxCell>
                <mxCell id="62" value="INCLUDE" style="edgeLabel;html=1;align=center;verticalAlign=middle;resizable=0;points=[];rotation=0;" parent="1" vertex="1" connectable="0">
                    <mxGeometry x="640.0007599661488" y="610.0020765228835" as="geometry">
                        <mxPoint x="-14.830127018922191" y="-15.686533479473212" as="offset"/>
                    </mxGeometry>
                </mxCell>
                <mxCell id="65" value="INCLUDE" style="edgeLabel;html=1;align=center;verticalAlign=middle;resizable=0;points=[];rotation=-25;" parent="1" vertex="1" connectable="0">
                    <mxGeometry x="600.0007599661488" y="710.0020765228835" as="geometry">
                        <mxPoint x="-14.830127018922191" y="-15.686533479473212" as="offset"/>
                    </mxGeometry>
                </mxCell>
                <mxCell id="66" value="INCLUDE" style="edgeLabel;html=1;align=center;verticalAlign=middle;resizable=0;points=[];rotation=-45;" parent="1" vertex="1" connectable="0">
                    <mxGeometry x="630.0007599661488" y="754.0020765228835" as="geometry">
                        <mxPoint x="-14.830127018922191" y="-15.686533479473212" as="offset"/>
                    </mxGeometry>
                </mxCell>
                <mxCell id="67" value="INCLUDE" style="edgeLabel;html=1;align=center;verticalAlign=middle;resizable=0;points=[];rotation=-50;" parent="1" vertex="1" connectable="0">
                    <mxGeometry x="640.0007599661488" y="780.0020765228835" as="geometry">
                        <mxPoint x="-14.830127018922191" y="-15.686533479473212" as="offset"/>
                    </mxGeometry>
                </mxCell>
                <mxCell id="68" value="INCLUDE" style="edgeLabel;html=1;align=center;verticalAlign=middle;resizable=0;points=[];rotation=-60;" parent="1" vertex="1" connectable="0">
                    <mxGeometry x="690.0007599661488" y="820.0020765228835" as="geometry">
                        <mxPoint x="-14.830127018922191" y="-15.686533479473212" as="offset"/>
                    </mxGeometry>
                </mxCell>
                <mxCell id="69" value="INCLUDE" style="edgeLabel;html=1;align=center;verticalAlign=middle;resizable=0;points=[];rotation=-65;" parent="1" vertex="1" connectable="0">
                    <mxGeometry x="730.0007599661488" y="840.0020765228835" as="geometry">
                        <mxPoint x="-14.830127018922191" y="-15.686533479473212" as="offset"/>
                    </mxGeometry>
                </mxCell>
                <mxCell id="70" value="INCLUDE" style="edgeLabel;html=1;align=center;verticalAlign=middle;resizable=0;points=[];rotation=-80;" parent="1" vertex="1" connectable="0">
                    <mxGeometry x="760.0007599661488" y="820.0020765228835" as="geometry">
                        <mxPoint x="-14.830127018922191" y="-15.686533479473212" as="offset"/>
                    </mxGeometry>
                </mxCell>
                <mxCell id="71" value="INCLUDE" style="edgeLabel;html=1;align=center;verticalAlign=middle;resizable=0;points=[];rotation=-80;" parent="1" vertex="1" connectable="0">
                    <mxGeometry x="790.0007599661488" y="830.0020765228835" as="geometry">
                        <mxPoint x="-14.830127018922191" y="-15.686533479473212" as="offset"/>
                    </mxGeometry>
                </mxCell>
                <mxCell id="75" value="S'incrire" style="ellipse;whiteSpace=wrap;html=1;" parent="1" vertex="1">
                    <mxGeometry x="310" y="110" width="160" height="60" as="geometry"/>
                </mxCell>
                <mxCell id="76" value="" style="endArrow=none;html=1;exitX=0.5;exitY=0.5;exitDx=0;exitDy=0;exitPerimeter=0;entryX=0;entryY=0.5;entryDx=0;entryDy=0;" parent="1" source="2" target="75" edge="1">
                    <mxGeometry width="50" height="50" relative="1" as="geometry">
                        <mxPoint x="66.00000000000023" y="545" as="sourcePoint"/>
                        <mxPoint x="340" y="570" as="targetPoint"/>
                    </mxGeometry>
                </mxCell>
                <mxCell id="80" value="" style="endArrow=none;html=1;exitX=0.5;exitY=0.5;exitDx=0;exitDy=0;exitPerimeter=0;entryX=0;entryY=0.5;entryDx=0;entryDy=0;" parent="1" target="3" edge="1">
                    <mxGeometry width="50" height="50" relative="1" as="geometry">
                        <mxPoint x="71.00000000000023" y="530" as="sourcePoint"/>
                        <mxPoint x="345" y="555" as="targetPoint"/>
                    </mxGeometry>
                </mxCell>
                <mxCell id="81" value="" style="endArrow=none;html=1;entryX=0;entryY=0.5;entryDx=0;entryDy=0;" parent="1" target="4" edge="1">
                    <mxGeometry width="50" height="50" relative="1" as="geometry">
                        <mxPoint x="70" y="530" as="sourcePoint"/>
                        <mxPoint x="360" y="117" as="targetPoint"/>
                    </mxGeometry>
                </mxCell>
                <mxCell id="82" value="" style="endArrow=none;html=1;entryX=0;entryY=0.5;entryDx=0;entryDy=0;" parent="1" target="6" edge="1">
                    <mxGeometry width="50" height="50" relative="1" as="geometry">
                        <mxPoint x="70" y="530" as="sourcePoint"/>
                        <mxPoint x="360" y="250" as="targetPoint"/>
                    </mxGeometry>
                </mxCell>
                <mxCell id="83" value="" style="endArrow=none;html=1;entryX=0;entryY=0.5;entryDx=0;entryDy=0;" parent="1" target="9" edge="1">
                    <mxGeometry width="50" height="50" relative="1" as="geometry">
                        <mxPoint x="70" y="530" as="sourcePoint"/>
                        <mxPoint x="370" y="260" as="targetPoint"/>
                    </mxGeometry>
                </mxCell>
            </root>
        </mxGraphModel>
    </diagram>
</mxfile>